<?xml version="1.0" standalone="no"?><!DOCTYPE svg PUBLIC "-//W3C//DTD SVG 1.1//EN" "http://www.w3.org/Graphics/SVG/1.1/DTD/svg11.dtd"><svg t="1651000312683" class="icon" viewBox="0 0 1024 1024" version="1.1" xmlns="http://www.w3.org/2000/svg" p-id="6267" id="mx_n_1651000312687" xmlns:xlink="http://www.w3.org/1999/xlink" width="44" height="44"><defs><style type="text/css">@font-face { font-family: feedback-iconfont; src: url("//at.alicdn.com/t/font_1031158_u69w8yhxdu.woff2?t=1630033759944") format("woff2"), url("//at.alicdn.com/t/font_1031158_u69w8yhxdu.woff?t=1630033759944") format("woff"), url("//at.alicdn.com/t/font_1031158_u69w8yhxdu.ttf?t=1630033759944") format("truetype"); }
</style></defs><path d="M181.2 820c-0.56-0.56-1.11-1.14-1.64-1.72h0.09c0.52 0.57 1.01 1.13 1.55 1.72zM669 156.08c-42.14-6.16-96.68 5-153.59 31.53-60.41 28.1-121 71.67-175.36 126-62.73 62.74-111.76 135.09-138 203.73-25.05 65.46-28 123-8.24 162A92.83 92.83 0 0 0 211 703.22a91.85 91.85 0 0 0 18.54 14.28C165.45 636.81 222.61 465 362.61 325c118.68-118.67 260.2-177.81 349.73-154.07-12.34-7.47-26.82-12.45-43.34-14.85z" fill="#FFFFFF" p-id="6268"></path><path d="M837.16 169.47c-0.34-0.36-0.68-0.7-1-1.06-29.72-29.68-72.16-44.81-123.42-44.81q-11.6 0-23.79 1c26 6.15 47.87 18 65.25 35.38 42.84 42.85 51.89 113.07 25.5 197.74a17.3 17.3 0 0 1-21.7 11.4 2.72 2.72 0 0 1-0.37-0.13 17.29 17.29 0 0 1-11-21.55c11.15-35.75 15.26-68.23 12.22-96.51-3-27.7-12.79-50.05-29.16-66.43a92.44 92.44 0 0 0-17.36-13.59c-89.53-23.74-231 35.4-349.73 154.07-140 140-197.16 311.83-133.09 392.52 13.48 7.92 29.51 12.91 47.89 14.88 28.28 3 60.75-1.07 96.51-12.22 75.58-23.56 156.09-75.42 226.7-146A677.65 677.65 0 0 0 689.68 465a17.31 17.31 0 0 1 23.75-5.21 1.2 1.2 0 0 1 0.21 0.13 17.31 17.31 0 0 1 5.07 24 712.19 712.19 0 0 1-93.6 114.78c-74.49 74.5-160 129.4-240.89 154.59-31.78 9.85-61.56 14.71-88.58 14.71-45 0-82.39-13.57-109.15-40.32a127.44 127.44 0 0 1-23.62-32.78 145.89 145.89 0 0 1-11.59-32.09c-5.11 61.74 9.78 112.51 43.84 146.57a139.78 139.78 0 0 0 36.28 26.09c118.63 21.83 289-49 430.06-190.07C822 484.9 891.57 286.49 837.16 169.47z m-79.32 244.31c-0.77 1.64-1.3 2.79-1.74 3.75-1.21 2.67-1.9 4.14-4.09 8.43a17.33 17.33 0 0 1-23.32 7.49s-0.06 0-0.1-0.06a17.31 17.31 0 0 1-7.4-23.26c1.94-3.75 2.37-4.7 3.41-7 0.46-1 1-2.27 1.85-4a17.31 17.31 0 0 1 22.72-8.51 1.75 1.75 0 0 1 0.28 0.13 17.33 17.33 0 0 1 8.39 23.03z" fill="#FFFFFF" p-id="6269"></path><path d="M181.2 820c-0.56-0.56-1.11-1.14-1.64-1.72h0.09c0.52 0.57 1.01 1.13 1.55 1.72zM867.54 382.33C841.08 478 778.72 578.41 691.92 665.22S504.65 814.38 409 840.83c-70.94 19.63-132.28 17.55-177.63-5.32 118.63 21.83 289-49 430.06-190.07 160.53-160.54 230.11-359 175.7-476 44.93 45.9 55.72 121.41 30.41 212.89z" fill="#DDDDDD" p-id="6270"></path><path d="M179.65 818.29h-0.09c0.53 0.58 1.08 1.16 1.64 1.72-0.54-0.6-1.03-1.16-1.55-1.72zM712.34 170.91c-89.53-23.74-231 35.4-349.73 154.07-140 140-197.16 311.83-133.09 392.52A91.85 91.85 0 0 1 211 703.22a92.83 92.83 0 0 1-17.19-23.88c-19.73-39-16.81-96.56 8.24-162 26.28-68.64 75.31-141 138-203.73 54.32-54.31 115-97.88 175.36-126 56.91-26.49 111.45-37.69 153.59-31.53 16.52 2.4 31 7.38 43.34 14.83z" fill="#FFFFFF" p-id="6271"></path><path d="M712.34 170.91c-89.53-23.74-231 35.4-349.73 154.07-140 140-197.16 311.83-133.09 392.52A91.85 91.85 0 0 1 211 703.22a92.83 92.83 0 0 1-17.19-23.88c-19.73-39-16.81-96.56 8.24-162 26.28-68.64 75.31-141 138-203.73 54.32-54.31 115-97.88 175.36-126 56.91-26.49 111.45-37.69 153.59-31.53 16.52 2.4 31 7.38 43.34 14.83z" fill="#DDDDDD" p-id="6272"></path><path d="M179.65 818.29h-0.09c0.53 0.58 1.08 1.16 1.64 1.72-0.54-0.6-1.03-1.16-1.55-1.72z" fill="#303030" p-id="6273"></path><path d="M912.75 253.21c-6.44-44.36-24-81.14-52.13-109.29s-64.93-45.69-109.31-52.13c-41.59-6-88.14-2.06-138.34 11.83-101.3 28-207.18 93.55-298.15 184.5S158.34 485 130.32 586.26c-13.89 50.21-17.87 96.76-11.84 138.35 6.45 44.38 24 81.15 52.14 109.3s64.93 45.69 109.3 52.09a270.24 270.24 0 0 0 39 2.74c31 0 64.32-4.87 99.35-14.56 101.31-28 207.18-93.56 298.15-184.52s156.48-196.8 184.5-298.1c13.89-50.19 17.87-96.74 11.83-138.35z m-733.19 565h0.09c0.52 0.56 1 1.12 1.55 1.67-0.56-0.48-1.11-1.06-1.64-1.64z m688-435.91c-26.48 95.7-88.84 196.11-175.64 282.92S504.65 814.38 409 840.83c-70.94 19.63-132.28 17.55-177.63-5.32a139.78 139.78 0 0 1-36.28-26.09c-34.06-34.06-49-84.83-43.84-146.57a145.89 145.89 0 0 0 11.59 32.09 127.44 127.44 0 0 0 23.62 32.78C213.25 754.47 250.67 768 295.64 768c27 0 56.8-4.9 88.58-14.82 80.84-25.19 166.4-80.09 240.89-154.59a712.19 712.19 0 0 0 93.6-114.78 17.31 17.31 0 0 0-5.07-24 1.2 1.2 0 0 0-0.21-0.13 17.31 17.31 0 0 0-23.75 5.32 677.65 677.65 0 0 1-89.06 109.16c-70.61 70.6-151.12 122.46-226.7 146-35.76 11.15-68.23 15.25-96.51 12.22-18.38-2-34.41-7-47.89-14.88A91.85 91.85 0 0 1 211 703.22a92.83 92.83 0 0 1-17.19-23.88c-19.73-39-16.81-96.56 8.24-162 26.28-68.64 75.31-141 138-203.73 54.32-54.31 115-97.88 175.36-126 56.91-26.49 111.45-37.69 153.59-31.53 16.5 2.4 31 7.38 43.32 14.83a92.44 92.44 0 0 1 17.38 13.59c16.37 16.38 26.18 38.73 29.16 66.43 3 28.28-1.07 60.76-12.22 96.51a17.29 17.29 0 0 0 11 21.55 2.72 2.72 0 0 0 0.37 0.13 17.3 17.3 0 0 0 21.68-11.37C806.09 273.08 797 202.86 754.2 160c-17.38-17.37-39.28-29.23-65.25-35.38q12.19-1 23.79-1c51.29 0 93.7 15.13 123.38 44.81 0.36 0.36 0.7 0.7 1 1.06 44.94 45.85 55.73 121.36 30.42 212.84z" fill="#303030" p-id="6274"></path><path d="M757.84 413.78c-0.77 1.64-1.3 2.79-1.74 3.75-1.21 2.67-1.9 4.14-4.09 8.43a17.33 17.33 0 0 1-23.32 7.49s-0.06 0-0.1-0.06a17.31 17.31 0 0 1-7.4-23.26c1.94-3.75 2.37-4.7 3.41-7 0.46-1 1-2.27 1.85-4a17.31 17.31 0 0 1 22.72-8.51 1.75 1.75 0 0 1 0.28 0.13 17.33 17.33 0 0 1 8.39 23.03zM606.44 355.3c-1.71-17-8.29-31.69-19-42.41-20.37-20.37-52.78-25-91.26-13-34.67 10.81-71.2 34.2-102.86 65.85S338.27 434 327.46 468.62c-12 38.48-7.38 70.9 13 91.26 10.37 10.37 23.86 16.67 40.11 18.75a91.33 91.33 0 0 0 11.7 0.72c21.45 0 45.79-6.84 70.38-19.3s49.44-30.55 71.93-53c23.58-23.57 42.76-50.08 55.47-76.67 12.95-27.12 18.62-53.07 16.39-75.08zM385 544.28c-8.48-1.09-15.21-4.08-20-8.88-21.82-21.82-5.46-86.79 52.87-145.14 41.91-41.91 87.23-62.14 117.53-62.14 11.89 0 21.47 3.11 27.62 9.27 5.07 5.08 8.12 12.27 9 21.4a61.53 61.53 0 0 1 0.31 6.3c0 33.29-24.25 79.46-62.23 117.43-47.66 47.63-97.18 65.33-125.1 61.76z" fill="#303030" p-id="6275"></path><path d="M572.3 365.09c0 33.29-24.25 79.46-62.23 117.43-47.63 47.63-97.15 65.33-125.12 61.76-8.48-1.09-15.21-4.08-20-8.88-21.82-21.82-5.46-86.79 52.87-145.14 41.91-41.91 87.23-62.14 117.53-62.14 11.89 0 21.47 3.11 27.62 9.27 5.07 5.08 8.12 12.27 9 21.4a61.53 61.53 0 0 1 0.33 6.3z" fill="#1296db" p-id="6276" data-spm-anchor-id="a313x.7781069.0.i5" class="selected"></path></svg>